<?xml version="1.0" encoding="UTF-8" standalone="no"?>
<svg width="131px" height="30px" viewBox="0 0 131 30" version="1.1" xmlns="http://www.w3.org/2000/svg" xmlns:xlink="http://www.w3.org/1999/xlink">
    <!-- Generator: Sketch 47.1 (45422) - http://www.bohemiancoding.com/sketch -->
    <title>Logo/Bottender v.0.6</title>
    <desc>Created with Sketch.</desc>
    <defs></defs>
    <g id="Symbols" stroke="none" stroke-width="1" fill="none" fill-rule="evenodd">
        <g id="navbar/Mobile" transform="translate(-16.000000, -15.000000)">
            <g id="Logo/Bottender-v.0.6">
                <g transform="translate(16.000000, 15.000000)">
                    <g id="bottender_logo_20171013-13" stroke-width="1" fill="#231F20">
                        <path d="M12.5272118,6.05695283 C17.023958,6.06127168 21.1045214,8.68340328 22.9682159,12.7662436 C23.4347544,12.8831351 23.8652967,12.9965058 24.2549022,13.1049473 C22.4685045,8.37436215 17.8856991,5.00000011 12.526506,5.00000011 C8.86061814,4.99951293 5.37917388,6.60400255 3.00305115,9.38906493 C3.40324376,9.41723155 3.85001964,9.4594815 4.33067426,9.50384394 C6.48455785,7.29826345 9.44070878,6.05511288 12.5272118,6.05695283 L12.5272118,6.05695283 Z M24.712971,14.5942578 C24.3798301,14.5773578 24.0071639,14.5520078 23.6013248,14.5189121 C23.8642048,15.4907622 23.9971076,16.4930287 23.9965768,17.4996455 C23.9965768,23.8089702 18.8512432,28.9423381 12.5272118,28.9423381 C10.3862251,28.9445956 8.28757492,28.3473516 6.4699755,27.2185405 L6.14318683,27.0157408 L5.84533624,27.2614946 C5.38797575,27.6453547 4.88234544,27.9680067 4.34126136,28.2212724 C4.62479382,27.722208 4.77408614,27.1584482 4.77462691,26.5847914 C4.77419798,26.402175 4.75885473,26.2198971 4.72874945,26.0397671 L4.70051716,25.8665423 L4.5748835,25.7440175 C0.504024311,21.8385955 -0.107399485,15.5562632 3.13433126,10.9424545 C2.73978511,10.8361254 2.38123511,10.7312048 2.06291612,10.6375507 C-1.21509529,15.604031 -0.527635049,22.1877714 3.70603499,26.3735416 C3.71238726,26.4439582 3.71591629,26.5143748 3.71591629,26.5847914 C3.71436073,27.8480729 2.68826948,28.8717779 1.4220433,28.8733299 L1.4220433,29.9295784 C3.15975879,29.9288807 4.84935382,29.3599839 6.23211852,28.3099973 C8.14350686,29.4188084 10.3154878,30.0019696 12.526506,29.999995 C19.4342399,29.999995 25.0545816,24.3927235 25.0545816,17.5010538 C25.0553194,16.5221117 24.9406617,15.5464794 24.712971,14.5942578 Z" id="Shape" fill-rule="nonzero"></path>
                        <path d="M24.831251,11.5218751 C24.5117062,9.95080939 22.7443121,1.95587699 19.8988077,1.46344305 C16.7450697,0.916834435 15.4845643,2.21216489 15.4845643,2.21216489 C15.4845643,2.21216489 14.7514493,0.571644495 11.5962974,0.0250358771 C8.75362077,-0.467398062 4.30756428,6.45168078 3.45921513,7.81993869 C1.87916484,7.70325477 0.931134664,7.73103665 0.894372868,7.93314988 C0.894372868,7.93314988 0.729651742,8.78605379 0.716926504,8.85898125 C0.625022013,9.37086251 6.40369363,10.799546 13.6245588,12.0504255 C20.845424,13.3013049 26.9323291,13.9000046 27.0242336,13.3888178 C27.0298893,13.3575632 27.200973,12.4907684 27.200973,12.4907684 C27.2384418,12.2886551 26.3568656,11.9434652 24.831251,11.5218751 Z" id="Shape" fill-rule="nonzero"></path>
                        <ellipse id="Oval" fill-rule="nonzero" cx="11.7398628" cy="15.2857143" rx="1.00218341" ry="1"></ellipse>
                        <ellipse id="Oval" fill-rule="nonzero" cx="21.0458515" cy="15.2857143" rx="1.00218341" ry="1"></ellipse>
                    </g>
                    <path d="M39.8065194,7.51210428 C42.366655,7.51210428 43.4670641,8.69646182 43.4670641,11.1098696 L43.4670641,11.6685289 C43.4670641,13.2774674 42.9730029,14.3054004 41.8725937,14.8193669 C43.1975762,15.3333333 43.7140948,16.5176909 43.7140948,18.1713222 L43.7140948,19.4450652 C43.7140948,21.858473 42.434027,23.1545624 39.9637207,23.1545624 L36.0786026,23.1545624 L36.0786026,7.51210428 L39.8065194,7.51210428 Z M39.6493181,16.1154562 L38.5489089,16.1154562 L38.5489089,20.9199255 L39.9637207,20.9199255 C40.7946419,20.9199255 41.2437885,20.5400372 41.2437885,19.3780261 L41.2437885,18.0148976 C41.2437885,16.5623836 40.7721845,16.1154562 39.6493181,16.1154562 Z M39.7391474,9.74674115 L38.5489089,9.74674115 L38.5489089,13.8808194 L39.5145741,13.8808194 C40.4353246,13.8808194 40.9967578,13.4785847 40.9967578,12.2271881 L40.9967578,11.3556797 C40.9967578,10.2383613 40.6149832,9.74674115 39.7391474,9.74674115 Z M49.6032621,11.1098696 L49.6032621,19.556797 C49.6032621,20.6741155 50.0973234,21.0986965 50.8833299,21.0986965 C51.6693365,21.0986965 52.1633977,20.6741155 52.1633977,19.556797 L52.1633977,11.1098696 C52.1633977,9.99255121 51.6693365,9.5679702 50.8833299,9.5679702 C50.0973234,9.5679702 49.6032621,9.99255121 49.6032621,11.1098696 Z M47.1329559,19.4003724 L47.1329559,11.2662942 C47.1329559,8.76350093 48.4579383,7.33333333 50.8833299,7.33333333 C53.3087216,7.33333333 54.633704,8.76350093 54.633704,11.2662942 L54.633704,19.4003724 C54.633704,21.9031657 53.3087216,23.3333333 50.8833299,23.3333333 C48.4579383,23.3333333 47.1329559,21.9031657 47.1329559,19.4003724 Z M57.6483332,9.74674115 L60.2309261,9.74674115 L60.2309261,23.1545624 L62.7012324,23.1545624 L62.7012324,9.74674115 L65.2838253,9.74674115 L65.2838253,7.51210428 L57.6483332,7.51210428 L57.6483332,9.74674115 Z M67.7819359,9.74674115 L70.3645288,9.74674115 L70.3645288,23.1545624 L72.8348351,23.1545624 L72.8348351,9.74674115 L75.417428,9.74674115 L75.417428,7.51210428 L67.7819359,7.51210428 L67.7819359,9.74674115 Z M81.1044795,9.74674115 L85.3713721,9.74674115 L85.3713721,7.51210428 L78.6341732,7.51210428 L78.6341732,23.1545624 L85.3713721,23.1545624 L85.3713721,20.9199255 L81.1044795,20.9199255 L81.1044795,16.3389199 L84.4955363,16.3389199 L84.4955363,14.1042831 L81.1044795,14.1042831 L81.1044795,9.74674115 Z M94.3147364,23.1545624 L96.8524146,23.1545624 L96.8524146,7.51210428 L94.6515963,7.51210428 L94.6515963,16.8752328 L92.113918,7.51210428 L89.0148065,7.51210428 L89.0148065,23.1545624 L91.2380822,23.1545624 L91.2380822,11.8249534 L94.3147364,23.1545624 Z M100.765337,23.1545624 L100.765337,7.51210428 L104.672912,7.51210428 C107.143219,7.51210428 108.355914,8.87523277 108.355914,11.3780261 L108.355914,19.2886406 C108.355914,21.7914339 107.143219,23.1545624 104.672912,23.1545624 L100.765337,23.1545624 Z M104.627998,9.74674115 L103.235643,9.74674115 L103.235643,20.9199255 L104.627998,20.9199255 C105.414004,20.9199255 105.885608,20.5176909 105.885608,19.4003724 L105.885608,11.2662942 C105.885608,10.1489758 105.414004,9.74674115 104.627998,9.74674115 Z M114.537027,9.74674115 L118.80392,9.74674115 L118.80392,7.51210428 L112.066721,7.51210428 L112.066721,23.1545624 L118.80392,23.1545624 L118.80392,20.9199255 L114.537027,20.9199255 L114.537027,16.3389199 L117.928084,16.3389199 L117.928084,14.1042831 L114.537027,14.1042831 L114.537027,9.74674115 Z M130.150218,23.1545624 L127.634997,23.1545624 C127.500253,22.7523277 127.410424,22.5065177 127.410424,21.2327747 L127.410424,18.7746741 C127.410424,17.3221601 126.916363,16.7858473 125.793496,16.7858473 L124.940118,16.7858473 L124.940118,23.1545624 L122.469812,23.1545624 L122.469812,7.51210428 L126.197728,7.51210428 C128.757864,7.51210428 129.858273,8.69646182 129.858273,11.1098696 L129.858273,12.3389199 C129.858273,13.9478585 129.341754,14.9981378 128.241345,15.5121043 C129.476498,16.0260708 129.88073,17.2104283 129.88073,18.8417132 L129.88073,21.255121 C129.88073,22.0148976 129.903188,22.5735568 130.150218,23.1545624 Z M126.130356,9.74674115 L124.940118,9.74674115 L124.940118,14.5512104 L125.905783,14.5512104 C126.826534,14.5512104 127.387967,14.1489758 127.387967,12.8975791 L127.387967,11.3556797 C127.387967,10.2383613 127.006192,9.74674115 126.130356,9.74674115 Z" id="BOTTENDER" fill="#000000"></path>
                </g>
            </g>
        </g>
    </g>
</svg>