<svg id="Content" xmlns="http://www.w3.org/2000/svg" viewBox="0 0 1000 1000"><defs><style>.cls-1{fill:#231f20;}</style></defs><title>bottender_logo_20171013</title><path class="cls-1" d="M516.67,349.48A162.72,162.72,0,0,1,664.6,444.76c6.61,1.66,12.71,3.27,18.23,4.81-25.31-67.18-90.24-115.1-166.17-115.1A177.16,177.16,0,0,0,381.73,396.8c5.67,0.4,12,1,18.81,1.63A162,162,0,0,1,516.67,349.48ZM689.32,470.72c-4.72-.24-10-0.6-15.75-1.07a162.14,162.14,0,0,1,5.6,42.33c0,89.6-72.9,162.5-162.5,162.5A162.07,162.07,0,0,1,430.85,650l-4.63-2.88L422,650.61a97.3,97.3,0,0,1-21.31,13.63A47.22,47.22,0,0,0,406.83,641a47.74,47.74,0,0,0-.65-7.74l-0.4-2.46L404,629.06a162.34,162.34,0,0,1-20.41-210.2c-5.59-1.51-10.67-3-15.18-4.33A177.32,177.32,0,0,0,391.69,638c0.09,1,.14,2,0.14,3a32.54,32.54,0,0,1-32.5,32.5v15a112.6,112.6,0,0,0,68.15-23,177.1,177.1,0,0,0,89.18,24c97.87,0,177.5-79.63,177.5-177.5A177.32,177.32,0,0,0,689.32,470.72Z"/><path class="cls-1" d="M686.52,433.49C682,410.87,657,295.76,616.75,288.67c-44.61-7.87-62.44,10.78-62.44,10.78s-10.37-23.62-55-31.49c-40.21-7.09-103.1,92.53-115.1,112.23-22.35-1.68-35.76-1.28-36.28,1.63,0,0-2.33,12.28-2.51,13.33-1.3,7.37,80.44,27.94,182.58,45.95s188.24,26.63,189.54,19.27c0.08-.45,2.5-12.93,2.5-12.93C720.57,444.53,708.1,439.56,686.52,433.49Z"/><circle class="cls-1" cx="500.3" cy="480.67" r="10.3"/><circle class="cls-1" cx="633.6" cy="480.67" r="10.3"/></svg>