<svg id="Content" xmlns="http://www.w3.org/2000/svg" viewBox="0 0 600 600"><defs><style>.cls-1{fill:#231f20;}</style></defs><title>bottender_logo_20171013</title><path class="cls-1" d="M463.67,327.34c0,91-74,165-165,165a164.57,164.57,0,0,1-87.14-24.88l-3.08-1.92-2.78,2.34a99.94,99.94,0,0,1-29.81,17.3,44.8,44.8,0,0,0,10.48-28.84,45.26,45.26,0,0,0-.61-7.33l-0.27-1.64-1.2-1.15a164.84,164.84,0,0,1-17.92-217.33q-5.46-1.45-10.31-2.82a174.84,174.84,0,0,0,20.06,226.15c0.17,1.39.18,2.78,0.25,4.12,1.39,27.36-31.28,42.48-31.28,42.48s45.68-2.19,64.24-21a174.59,174.59,0,0,0,89.37,24.53c96.5,0,175-78.5,175-175a174.56,174.56,0,0,0-6.45-47.11c-3.3-.19-6.85-0.44-10.64-0.75A164.46,164.46,0,0,1,463.67,327.34Z"/><circle class="cls-1" cx="282.3" cy="296.03" r="10.3"/><circle class="cls-1" cx="415.6" cy="296.03" r="10.3"/><path class="cls-1" d="M468.52,248.86C464,226.24,439,111.12,398.75,104c-44.61-7.87-62.44,10.78-62.44,10.78s-10.37-23.62-55-31.49c-40.21-7.09-103.1,92.53-115.1,112.23-22.35-1.68-35.76-1.28-36.28,1.63l-0.88,5c-1.3,7.37,80.94,28,183.7,46.15s186.1,26.83,187.4,19.46l0.88-5C501.57,259.89,490.1,254.92,468.52,248.86Z"/></svg>