<svg id="font_main_content" data-name="font / main content" xmlns="http://www.w3.org/2000/svg" viewBox="0 0 600 600"><title>materials__1030</title><g id="bottender_logo_20171013-13" data-name="bottender logo 20171013-13"><path id="Shape" d="M296.65,139.53a35.81,35.81,0,0,1,32.55,21c1.45,0.37,2.8.72,4,1.06A39,39,0,0,0,267,150c1.25,0.09,2.64.22,4.14,0.36a35.63,35.63,0,0,1,25.56-10.78h0Zm38,26.71c-1-.05-2.2-0.13-3.47-0.24a35.77,35.77,0,0,1-53.41,39.73l-1-.63-0.93.77a21.41,21.41,0,0,1-4.69,3,10.41,10.41,0,0,0,1.35-5.12,10.53,10.53,0,0,0-.14-1.7l-0.09-.54-0.39-.38a35.78,35.78,0,0,1-4.49-46.3c-1.23-.33-2.35-0.66-3.34-1a39.09,39.09,0,0,0,5.12,49.23c0,0.22.23,0.44,0.23,0.66a7,7,0,0,1-7,7.16v3.3a24.32,24.32,0,0,0,14.8-5.07,38.59,38.59,0,0,0,19.53,5.29A38.94,38.94,0,0,0,334.65,166.24Z"/><path id="Shape-2" data-name="Shape" d="M335,156.63c-1-4.91-6.51-29.92-15.38-31.46-9.83-1.71-13.76,2.34-13.76,2.34s-2.29-5.13-12.12-6.84c-8.86-1.54-22.73,20.1-25.37,24.38-4.93-.37-7.88-0.28-8,0.35,0,0-.51,2.67-0.55,2.9-0.29,1.6,17.73,6.07,40.25,10s41.49,5.79,41.78,4.19l0.55-2.81C342.52,159,339.77,157.95,335,156.63Z"/><circle id="Oval" cx="294.2" cy="168.4" r="3.13"/><circle id="Oval-2" data-name="Oval" cx="323.21" cy="168.4" r="3.13"/></g><g id="Logo_Bottender-v.0.6" data-name="Logo/Bottender-v.0.6"><path id="BOTTENDER-2" data-name="BOTTENDER" d="M74.7,260.38c13.3,0,19.54,6,19.54,18.61v2.91c0,8.39-2.5,13.74-8.22,16.42,6.88,2.68,9.63,8.85,9.63,17.47v6.64c0,12.58-7.31,18.68-20.14,18.68H56V260.38H74.7ZM73.89,305.7H68.75v24.08h6.77c4.32,0,6-1.65,6-7.7V315C81.5,307.4,79.72,305.7,73.89,305.7Zm0.47-34h-5.6V293h4.44c4.78,0,8.31-1.62,8.31-8.14v-4.54C81.5,274.45,78.9,271.71,74.35,271.71ZM125.41,279v44c0,5.82,3,8,7.08,8s7.08-2.21,7.08-8V279c0-5.82-3-8-7.08-8S125.41,273.17,125.41,279ZM112.66,322.2V279.8c0-13,7.23-20.5,19.83-20.5s19.83,7.45,19.83,20.5V322.2c0,13-7.23,20.5-19.83,20.5S112.66,335.24,112.66,322.2Zm55.24-50.49h12.75v69.4h12.75v-69.4h14.16V260.38H167.9v11.33Zm52.41,0h12.75v69.4H245.8v-69.4H260V260.38H220.31v11.33Zm69.4,0H311V260.38H277v80.74h34V329.78H289.71V305.7h17V294.37h-17V271.71Zm68.14,69.4h12.6V260.38H359.11V309l-12.7-48.66H330.79v80.74h11.33v-58.4Zm33.84,0V260.38h20c12.83,0,19.7,7,19.7,20v41.23c0,13-6.86,19.5-19.7,19.5h-20Zm19.73-69.4h-7v58.07h7c4.08,0,7.18-1.76,7.18-7.59V279.8C418.6,274,415.5,271.71,411.42,271.71Zm51.09,0h22.66V260.38H449.76v80.74h35.41V329.78H462.51V305.7h18.41V294.37H462.51V271.71ZM544,341.11H530.93c-0.7-1.42-1.85-2.73-1.85-9.37V318.93c0-7.57-1.88-10.4-7.72-10.4h-5v32.58H503.59V260.38h19.88c13.3,0,18.36,6,18.36,18.61v6.41c0,8.39-2,13.86-7.75,16.54,6.42,2.68,9.17,8.85,9.17,17.35v12.58C543.25,335.82,542.71,338.28,544,341.11Zm-20.88-69.4h-6.78v25.5h5.62c4.78,0,7.13-2.38,7.13-8.9v-8C529.08,274.45,527.67,271.71,523.12,271.71Z"/></g><path d="M104.54,394V375.24h-0.06l-8.14,18.69H95.23l-8.14-18.69H87V394H85.91V372.84H87.2l8.54,19.63h0.09l8.51-19.63h1.32V394h-1.11Z"/><path d="M124.83,386.93h-9.51l-2.62,7h-1.26l8.06-21.14h1.17l8,21.14h-1.25Zm-9.13-1h8.76l-4.35-11.54H120Z"/><path d="M134.49,394V372.84h1.16v11.81h0.09l11-11.81h1.48l-8.7,9.32L149.17,394h-1.48l-9-11-3,3.27V394h-1.16Z"/><path d="M167.14,394H154.82V372.84h12.32v1.07H156v8.7h10.63v1.05H156v9.24h11.16V394Z"/><path d="M183.32,394V372.84h7c3.68,0,6.17,2.08,6.17,5.14a4.91,4.91,0,0,1-4.16,5V383c3,0.32,5.27,2.26,5.27,5.32,0,3.46-2.7,5.64-7.13,5.64h-7.19Zm1.16-11.4h5.43c3.31,0,5.45-1.73,5.45-4.51,0-2.55-2-4.17-5.17-4.17h-5.71v8.69Zm5.93,10.34c3.81,0,6.06-1.77,6.06-4.61s-2.36-4.69-6.37-4.69h-5.62v9.3h5.93Z"/><path d="M221.85,383.4c0,6.68-3.65,10.88-9.42,10.88S203,390.08,203,383.4s3.66-10.87,9.42-10.87S221.85,376.75,221.85,383.4Zm-17.65,0c0,6,3.21,9.8,8.23,9.8s8.23-3.81,8.23-9.8-3.21-9.79-8.23-9.79S204.2,377.42,204.2,383.4Z"/><path d="M234.16,394V373.91h-7.41v-1.07h16v1.07h-7.4V394h-1.16Z"/><path d="M248.61,388.34c0.18,2.87,2.87,4.88,6.55,4.88s6.09-2,6.09-4.79c0-2.21-1.49-3.49-5-4.38l-2.5-.62c-3.91-1-5.68-2.58-5.68-5.23,0-3.3,3.08-5.67,6.93-5.67s7,2.34,7.09,5.45h-1.16c-0.16-2.53-2.64-4.38-6-4.38s-5.71,1.9-5.71,4.57c0,2.11,1.55,3.33,5,4.17l2.36,0.6c4.09,1,5.92,2.58,5.92,5.39,0,3.5-2.94,5.95-7.37,5.95s-7.44-2.45-7.62-5.95h1.16Z"/><path d="M278,394V372.84h1.16V394H278Z"/><path d="M286.51,394V372.84h1.2l13.46,19h0.09v-19h1.16V394h-1.1l-13.58-19.15h-0.09V394h-1.14Z"/><path d="M325.15,394v-9.21l-7.69-11.92h1.36l6.87,10.74h0.07l6.87-10.74H334l-7.68,11.92V394h-1.16Z"/><path d="M357.72,383.4c0,6.68-3.65,10.88-9.42,10.88s-9.42-4.2-9.42-10.88,3.66-10.87,9.42-10.87S357.72,376.75,357.72,383.4Zm-17.65,0c0,6,3.21,9.8,8.23,9.8s8.23-3.81,8.23-9.8-3.21-9.79-8.23-9.79S340.07,377.42,340.07,383.4Z"/><path d="M365.33,386.59c0,4,2.58,6.61,6.74,6.61s6.74-2.58,6.74-6.61V372.84H380v13.8c0,4.61-3,7.65-7.9,7.65s-7.9-3-7.9-7.65v-13.8h1.16v13.75Z"/><path d="M388.47,394h-1.16V372.84h6.86c4.19,0,6.78,2.31,6.78,6a5.69,5.69,0,0,1-4.89,5.86L401.5,394h-1.35l-5.29-9.07a6.21,6.21,0,0,1-.75,0h-5.64v9Zm0-10.08h5.64c3.53,0,5.65-1.89,5.65-5s-2.15-5-5.7-5h-5.6v10Z"/><path d="M422.64,394h-1l-5.9-21.14h1.2L422.13,392h0.07l5.55-19.13h1.08L434.41,392h0.07l5.2-19.13h1.22L435,394h-1l-5.62-19h-0.07Z"/><path d="M458.81,386.93H449.3l-2.62,7h-1.26l8.06-21.14h1.17l8,21.14h-1.25Zm-9.13-1h8.76l-4.35-11.54H454Z"/><path d="M474.61,394v-9.21l-7.69-11.92h1.36l6.87,10.74h0.07l6.87-10.74h1.35l-7.68,11.92V394h-1.16Z"/><path d="M489.63,397.23l1-5.89h1.22l-1.26,5.89h-0.91Z"/><path d="M136.31,432V410.84h12.16v1.07h-11v8.83h10.12v1.05H137.46V432h-1.16Z"/><path d="M166.86,424.93h-9.51l-2.62,7h-1.26l8.06-21.14h1.17l8,21.14H169.5Zm-9.13-1h8.76l-4.35-11.54h-0.07Z"/><path d="M176.64,426.34c0.18,2.87,2.87,4.88,6.55,4.88s6.09-2,6.09-4.79c0-2.21-1.49-3.49-5-4.38l-2.5-.62c-3.91-1-5.68-2.58-5.68-5.23,0-3.3,3.08-5.67,6.93-5.67s7,2.34,7.09,5.45h-1.16c-0.16-2.53-2.64-4.38-6-4.38s-5.71,1.9-5.71,4.57c0,2.11,1.55,3.33,5,4.17l2.36,0.6c4.09,1,5.92,2.58,5.92,5.39,0,3.5-2.94,5.95-7.37,5.95s-7.44-2.45-7.62-5.95h1.16Z"/><path d="M202.62,432V411.91h-7.41v-1.07h16v1.07h-7.4V432h-1.16Z"/><path d="M238,424.93h-9.51l-2.62,7h-1.26l8.06-21.14h1.17l8,21.14h-1.25Zm-9.13-1h8.76l-4.35-11.54h-0.07Z"/><path d="M247.7,432V410.84h1.2l13.46,19h0.09v-19h1.16V432h-1.1l-13.58-19.15h-0.09V432H247.7Z"/><path d="M277.48,410.84c6.4,0,10.08,3.85,10.08,10.56S283.89,432,277.48,432h-6.53V410.84h6.53Zm-5.36,20.07h5.32c5.74,0,9-3.41,9-9.49s-3.21-9.51-9-9.51h-5.32v19Z"/><path d="M303.27,432V410.84h12.16v1.07h-11v8.83h10.12v1.05H304.42V432h-1.16Z"/><path d="M334.24,432H322V410.84h1.16v20.07h11.09V432Z"/><path d="M352.92,432H340.6V410.84h12.32v1.07H341.75v8.7h10.63v1.05H341.75v9.24h11.16V432Z"/><path d="M366.14,421.4v0l-7.53-10.53H360l6.87,9.64h0l6.9-9.64h1.35l-7.59,10.56v0L375.11,432h-1.39l-6.86-9.61h0l-6.9,9.61h-1.35Z"/><path d="M381.24,432V410.84h1.16V432h-1.16Z"/><path d="M389.75,432V410.84h7c3.68,0,6.17,2.08,6.17,5.14a4.91,4.91,0,0,1-4.16,5V421c3,0.32,5.27,2.26,5.27,5.32,0,3.46-2.7,5.64-7.13,5.64h-7.19Zm1.16-11.4h5.43c3.31,0,5.45-1.73,5.45-4.51,0-2.55-2-4.17-5.17-4.17h-5.71v8.69Zm5.93,10.34c3.81,0,6.06-1.77,6.06-4.61s-2.36-4.69-6.37-4.69h-5.62v9.3h5.93Z"/><path d="M422.59,432H410.34V410.84h1.16v20.07h11.09V432Z"/><path d="M435.08,432v-9.21l-7.69-11.92h1.36l6.87,10.74h0.07l6.87-10.74h1.35l-7.68,11.92V432h-1.16Z"/></svg>